<svg width="160" height="160" viewBox="0 0 160 160" fill="none" xmlns="http://www.w3.org/2000/svg">
<g opacity="0.2">
<path opacity="0.5" d="M80 135C110.376 135 135 110.376 135 80C135 49.6243 110.376 25 80 25C49.6243 25 25 49.6243 25 80C25 110.376 49.6243 135 80 135Z" stroke="#FF1F4F" stroke-width="0.5"/>
<path opacity="0.4" d="M80 118C100.987 118 118 100.987 118 80C118 59.0132 100.987 42 80 42C59.0132 42 42 59.0132 42 80C42 100.987 59.0132 118 80 118Z" stroke="#FF1F4F" stroke-width="0.5"/>
<path opacity="0.6" d="M80 100C91.0457 100 100 91.0457 100 80C100 68.9543 91.0457 60 80 60C68.9543 60 60 68.9543 60 80C60 91.0457 68.9543 100 80 100Z" stroke="#FF1F4F" stroke-width="0.5"/>
<path opacity="0.8" d="M80 83C81.6569 83 83 81.6569 83 80C83 78.3431 81.6569 77 80 77C78.3431 77 77 78.3431 77 80C77 81.6569 78.3431 83 80 83Z" fill="#FF1F4F"/>
<path opacity="0.7" d="M135 83.5C136.933 83.5 138.5 81.933 138.5 80C138.5 78.067 136.933 76.5 135 76.5C133.067 76.5 131.5 78.067 131.5 80C131.5 81.933 133.067 83.5 135 83.5Z" fill="#FF1F4F"/>
<path opacity="0.5" d="M118 82.5C119.381 82.5 120.5 81.3807 120.5 80C120.5 78.6193 119.381 77.5 118 77.5C116.619 77.5 115.5 78.6193 115.5 80C115.5 81.3807 116.619 82.5 118 82.5Z" fill="#FF1F4F"/>
<path opacity="0.4" d="M100 82C101.105 82 102 81.1046 102 80C102 78.8954 101.105 78 100 78C98.8954 78 98 78.8954 98 80C98 81.1046 98.8954 82 100 82Z" fill="#FF5C7C"/>
<path opacity="0.3" d="M80 128C106.51 128 128 106.51 128 80C128 53.4903 106.51 32 80 32C53.4903 32 32 53.4903 32 80C32 106.51 53.4903 128 80 128Z" stroke="#FF5C7C" stroke-width="0.3" stroke-dasharray="4 8"/>
</g>
</svg>
