<svg width="160" height="160" viewBox="0 0 160 160" fill="none" xmlns="http://www.w3.org/2000/svg">
<g opacity="0.2">
<path opacity="0.441" d="M20 21.5C20.8284 21.5 21.5 20.8284 21.5 20C21.5 19.1716 20.8284 18.5 20 18.5C19.1716 18.5 18.5 19.1716 18.5 20C18.5 20.8284 19.1716 21.5 20 21.5Z" fill="#FF1F4F"/>
<path opacity="0.501" d="M44 21.5C44.8284 21.5 45.5 20.8284 45.5 20C45.5 19.1716 44.8284 18.5 44 18.5C43.1716 18.5 42.5 19.1716 42.5 20C42.5 20.8284 43.1716 21.5 44 21.5Z" fill="#FF1F4F"/>
<path opacity="0.561" d="M68 21.5C68.8284 21.5 69.5 20.8284 69.5 20C69.5 19.1716 68.8284 18.5 68 18.5C67.1716 18.5 66.5 19.1716 66.5 20C66.5 20.8284 67.1716 21.5 68 21.5Z" fill="#FF1F4F"/>
<path opacity="0.621" d="M92 21.5C92.8284 21.5 93.5 20.8284 93.5 20C93.5 19.1716 92.8284 18.5 92 18.5C91.1716 18.5 90.5 19.1716 90.5 20C90.5 20.8284 91.1716 21.5 92 21.5Z" fill="#FF1F4F"/>
<path opacity="0.681" d="M116 21.5C116.828 21.5 117.5 20.8284 117.5 20C117.5 19.1716 116.828 18.5 116 18.5C115.172 18.5 114.5 19.1716 114.5 20C114.5 20.8284 115.172 21.5 116 21.5Z" fill="#FF1F4F"/>
<path opacity="0.741" d="M140 21.5C140.828 21.5 141.5 20.8284 141.5 20C141.5 19.1716 140.828 18.5 140 18.5C139.172 18.5 138.5 19.1716 138.5 20C138.5 20.8284 139.172 21.5 140 21.5Z" fill="#FF1F4F"/>
<path opacity="0.501" d="M20 45.5C20.8284 45.5 21.5 44.8284 21.5 44C21.5 43.1716 20.8284 42.5 20 42.5C19.1716 42.5 18.5 43.1716 18.5 44C18.5 44.8284 19.1716 45.5 20 45.5Z" fill="#FF1F4F"/>
<path opacity="0.561" d="M44 45.5C44.8284 45.5 45.5 44.8284 45.5 44C45.5 43.1716 44.8284 42.5 44 42.5C43.1716 42.5 42.5 43.1716 42.5 44C42.5 44.8284 43.1716 45.5 44 45.5Z" fill="#FF1F4F"/>
<path opacity="0.621" d="M68 45.5C68.8284 45.5 69.5 44.8284 69.5 44C69.5 43.1716 68.8284 42.5 68 42.5C67.1716 42.5 66.5 43.1716 66.5 44C66.5 44.8284 67.1716 45.5 68 45.5Z" fill="#FF1F4F"/>
<path opacity="0.681" d="M92 45.5C92.8284 45.5 93.5 44.8284 93.5 44C93.5 43.1716 92.8284 42.5 92 42.5C91.1716 42.5 90.5 43.1716 90.5 44C90.5 44.8284 91.1716 45.5 92 45.5Z" fill="#FF1F4F"/>
<path opacity="0.741" d="M116 45.5C116.828 45.5 117.5 44.8284 117.5 44C117.5 43.1716 116.828 42.5 116 42.5C115.172 42.5 114.5 43.1716 114.5 44C114.5 44.8284 115.172 45.5 116 45.5Z" fill="#FF1F4F"/>
<path opacity="0.801" d="M140 45.5C140.828 45.5 141.5 44.8284 141.5 44C141.5 43.1716 140.828 42.5 140 42.5C139.172 42.5 138.5 43.1716 138.5 44C138.5 44.8284 139.172 45.5 140 45.5Z" fill="#FF1F4F"/>
<path opacity="0.561" d="M20 69.5C20.8284 69.5 21.5 68.8284 21.5 68C21.5 67.1716 20.8284 66.5 20 66.5C19.1716 66.5 18.5 67.1716 18.5 68C18.5 68.8284 19.1716 69.5 20 69.5Z" fill="#FF1F4F"/>
<path opacity="0.621" d="M44 69.5C44.8284 69.5 45.5 68.8284 45.5 68C45.5 67.1716 44.8284 66.5 44 66.5C43.1716 66.5 42.5 67.1716 42.5 68C42.5 68.8284 43.1716 69.5 44 69.5Z" fill="#FF1F4F"/>
<path opacity="0.681" d="M68 69.5C68.8284 69.5 69.5 68.8284 69.5 68C69.5 67.1716 68.8284 66.5 68 66.5C67.1716 66.5 66.5 67.1716 66.5 68C66.5 68.8284 67.1716 69.5 68 69.5Z" fill="#FF1F4F"/>
<path opacity="0.741" d="M92 69.5C92.8284 69.5 93.5 68.8284 93.5 68C93.5 67.1716 92.8284 66.5 92 66.5C91.1716 66.5 90.5 67.1716 90.5 68C90.5 68.8284 91.1716 69.5 92 69.5Z" fill="#FF1F4F"/>
<path opacity="0.801" d="M116 69.5C116.828 69.5 117.5 68.8284 117.5 68C117.5 67.1716 116.828 66.5 116 66.5C115.172 66.5 114.5 67.1716 114.5 68C114.5 68.8284 115.172 69.5 116 69.5Z" fill="#FF1F4F"/>
<path opacity="0.861" d="M140 69.5C140.828 69.5 141.5 68.8284 141.5 68C141.5 67.1716 140.828 66.5 140 66.5C139.172 66.5 138.5 67.1716 138.5 68C138.5 68.8284 139.172 69.5 140 69.5Z" fill="#FF1F4F"/>
<path opacity="0.621" d="M20 93.5C20.8284 93.5 21.5 92.8284 21.5 92C21.5 91.1716 20.8284 90.5 20 90.5C19.1716 90.5 18.5 91.1716 18.5 92C18.5 92.8284 19.1716 93.5 20 93.5Z" fill="#FF1F4F"/>
<path opacity="0.681" d="M44 93.5C44.8284 93.5 45.5 92.8284 45.5 92C45.5 91.1716 44.8284 90.5 44 90.5C43.1716 90.5 42.5 91.1716 42.5 92C42.5 92.8284 43.1716 93.5 44 93.5Z" fill="#FF1F4F"/>
<path opacity="0.741" d="M68 93.5C68.8284 93.5 69.5 92.8284 69.5 92C69.5 91.1716 68.8284 90.5 68 90.5C67.1716 90.5 66.5 91.1716 66.5 92C66.5 92.8284 67.1716 93.5 68 93.5Z" fill="#FF1F4F"/>
<path opacity="0.801" d="M92 93.5C92.8284 93.5 93.5 92.8284 93.5 92C93.5 91.1716 92.8284 90.5 92 90.5C91.1716 90.5 90.5 91.1716 90.5 92C90.5 92.8284 91.1716 93.5 92 93.5Z" fill="#FF1F4F"/>
<path opacity="0.861" d="M116 93.5C116.828 93.5 117.5 92.8284 117.5 92C117.5 91.1716 116.828 90.5 116 90.5C115.172 90.5 114.5 91.1716 114.5 92C114.5 92.8284 115.172 93.5 116 93.5Z" fill="#FF1F4F"/>
<path opacity="0.879" d="M140 93.5C140.828 93.5 141.5 92.8284 141.5 92C141.5 91.1716 140.828 90.5 140 90.5C139.172 90.5 138.5 91.1716 138.5 92C138.5 92.8284 139.172 93.5 140 93.5Z" fill="#FF1F4F"/>
<path opacity="0.681" d="M20 117.5C20.8284 117.5 21.5 116.828 21.5 116C21.5 115.172 20.8284 114.5 20 114.5C19.1716 114.5 18.5 115.172 18.5 116C18.5 116.828 19.1716 117.5 20 117.5Z" fill="#FF1F4F"/>
<path opacity="0.741" d="M44 117.5C44.8284 117.5 45.5 116.828 45.5 116C45.5 115.172 44.8284 114.5 44 114.5C43.1716 114.5 42.5 115.172 42.5 116C42.5 116.828 43.1716 117.5 44 117.5Z" fill="#FF1F4F"/>
<path opacity="0.801" d="M68 117.5C68.8284 117.5 69.5 116.828 69.5 116C69.5 115.172 68.8284 114.5 68 114.5C67.1716 114.5 66.5 115.172 66.5 116C66.5 116.828 67.1716 117.5 68 117.5Z" fill="#FF1F4F"/>
<path opacity="0.861" d="M92 117.5C92.8284 117.5 93.5 116.828 93.5 116C93.5 115.172 92.8284 114.5 92 114.5C91.1716 114.5 90.5 115.172 90.5 116C90.5 116.828 91.1716 117.5 92 117.5Z" fill="#FF1F4F"/>
<path opacity="0.879" d="M116 117.5C116.828 117.5 117.5 116.828 117.5 116C117.5 115.172 116.828 114.5 116 114.5C115.172 114.5 114.5 115.172 114.5 116C114.5 116.828 115.172 117.5 116 117.5Z" fill="#FF1F4F"/>
<path opacity="0.819" d="M140 117.5C140.828 117.5 141.5 116.828 141.5 116C141.5 115.172 140.828 114.5 140 114.5C139.172 114.5 138.5 115.172 138.5 116C138.5 116.828 139.172 117.5 140 117.5Z" fill="#FF1F4F"/>
<path opacity="0.741" d="M20 141.5C20.8284 141.5 21.5 140.828 21.5 140C21.5 139.172 20.8284 138.5 20 138.5C19.1716 138.5 18.5 139.172 18.5 140C18.5 140.828 19.1716 141.5 20 141.5Z" fill="#FF1F4F"/>
<path opacity="0.801" d="M44 141.5C44.8284 141.5 45.5 140.828 45.5 140C45.5 139.172 44.8284 138.5 44 138.5C43.1716 138.5 42.5 139.172 42.5 140C42.5 140.828 43.1716 141.5 44 141.5Z" fill="#FF1F4F"/>
<path opacity="0.861" d="M68 141.5C68.8284 141.5 69.5 140.828 69.5 140C69.5 139.172 68.8284 138.5 68 138.5C67.1716 138.5 66.5 139.172 66.5 140C66.5 140.828 67.1716 141.5 68 141.5Z" fill="#FF1F4F"/>
<path opacity="0.879" d="M92 141.5C92.8284 141.5 93.5 140.828 93.5 140C93.5 139.172 92.8284 138.5 92 138.5C91.1716 138.5 90.5 139.172 90.5 140C90.5 140.828 91.1716 141.5 92 141.5Z" fill="#FF1F4F"/>
<path opacity="0.819" d="M116 141.5C116.828 141.5 117.5 140.828 117.5 140C117.5 139.172 116.828 138.5 116 138.5C115.172 138.5 114.5 139.172 114.5 140C114.5 140.828 115.172 141.5 116 141.5Z" fill="#FF1F4F"/>
<path opacity="0.759" d="M140 141.5C140.828 141.5 141.5 140.828 141.5 140C141.5 139.172 140.828 138.5 140 138.5C139.172 138.5 138.5 139.172 138.5 140C138.5 140.828 139.172 141.5 140 141.5Z" fill="#FF1F4F"/>
</g>
</svg>
