<svg width="140" height="140" viewBox="0 0 140 140" fill="none" xmlns="http://www.w3.org/2000/svg">
<g opacity="0.18" clip-path="url(#clip0_5096_20380)">
<path opacity="0.2" d="M0 10H140" stroke="#FF1F4F" stroke-width="0.5"/>
<path opacity="0.259" d="M38 8H2C0.89543 8 0 8.89543 0 10C0 11.1046 0.89543 12 2 12H38C39.1046 12 40 11.1046 40 10C40 8.89543 39.1046 8 38 8Z" fill="#FF1F4F"/>
<path opacity="0.3" d="M0 28H140" stroke="#FF1F4F" stroke-width="0.5"/>
<path opacity="0.0544643" d="M38 26H2C0.89543 26 0 26.8954 0 28C0 29.1046 0.89543 30 2 30H38C39.1046 30 40 29.1046 40 28C40 26.8954 39.1046 26 38 26Z" fill="#FF1F4F"/>
<path opacity="0.4" d="M0 46H140" stroke="#FF1F4F" stroke-width="0.5"/>
<path opacity="0.0798387" d="M38 44H2C0.89543 44 0 44.8954 0 46C0 47.1046 0.89543 48 2 48H38C39.1046 48 40 47.1046 40 46C40 44.8954 39.1046 44 38 44Z" fill="#FF1F4F"/>
<path opacity="0.2" d="M0 64H140" stroke="#FF1F4F" stroke-width="0.5"/>
<path opacity="0.456618" d="M38 62H2C0.89543 62 0 62.8954 0 64C0 65.1046 0.89543 66 2 66H38C39.1046 66 40 65.1046 40 64C40 62.8954 39.1046 62 38 62Z" fill="#FF1F4F"/>
<path opacity="0.3" d="M0 82H140" stroke="#FF1F4F" stroke-width="0.5"/>
<path opacity="0.256081" d="M38 80H2C0.89543 80 0 80.8954 0 82C0 83.1046 0.89543 84 2 84H38C39.1046 84 40 83.1046 40 82C40 80.8954 39.1046 80 38 80Z" fill="#FF1F4F"/>
<path opacity="0.4" d="M0 100H140" stroke="#FF1F4F" stroke-width="0.5"/>
<path opacity="0.161875" d="M38 98H2C0.89543 98 0 98.8954 0 100C0 101.105 0.89543 102 2 102H38C39.1046 102 40 101.105 40 100C40 98.8954 39.1046 98 38 98Z" fill="#FF1F4F"/>
<path opacity="0.2" d="M0 118H140" stroke="#FF1F4F" stroke-width="0.5"/>
<path opacity="0.220349" d="M38 116H2C0.89543 116 0 116.895 0 118C0 119.105 0.89543 120 2 120H38C39.1046 120 40 119.105 40 118C40 116.895 39.1046 116 38 116Z" fill="#FF1F4F"/>
<path d="M11.5511 66.1733V64.3239C13.2116 64.3239 14.37 63.9759 15.0263 63.2798C15.6925 62.5838 16.0256 61.4205 16.0256 59.7898V55.017C16.0256 53.6449 16.1548 52.4567 16.4134 51.4524C16.6818 50.4482 17.1143 49.6179 17.7109 48.9616C18.3075 48.3054 19.103 47.8182 20.0973 47.5C21.0916 47.1818 22.3196 47.0227 23.7812 47.0227V49.946C22.6278 49.946 21.718 50.125 21.0518 50.483C20.3956 50.8409 19.9283 51.3977 19.6499 52.1534C19.3814 52.8991 19.2472 53.8537 19.2472 55.017V60.983C19.2472 61.7585 19.1428 62.4645 18.9339 63.1009C18.7351 63.7372 18.3622 64.2841 17.8153 64.7415C17.2685 65.1989 16.4879 65.5518 15.4737 65.8004C14.4695 66.049 13.1619 66.1733 11.5511 66.1733ZM23.7812 85.2045C22.3196 85.2045 21.0916 85.0455 20.0973 84.7273C19.103 84.4091 18.3075 83.9219 17.7109 83.2656C17.1143 82.6094 16.6818 81.7791 16.4134 80.7749C16.1548 79.7706 16.0256 78.5824 16.0256 77.2102V72.4375C16.0256 70.8068 15.6925 69.6435 15.0263 68.9474C14.37 68.2514 13.2116 67.9034 11.5511 67.9034V66.054C13.1619 66.054 14.4695 66.1783 15.4737 66.4268C16.4879 66.6754 17.2685 67.0284 17.8153 67.4858C18.3622 67.9432 18.7351 68.4901 18.9339 69.1264C19.1428 69.7628 19.2472 70.4687 19.2472 71.2443V77.2102C19.2472 78.3736 19.3814 79.3281 19.6499 80.0739C19.9283 80.8196 20.3956 81.3714 21.0518 81.7294C21.718 82.0973 22.6278 82.2812 23.7812 82.2812V85.2045ZM11.5511 67.9034V64.3239H15.071V67.9034H11.5511Z" fill="#FF1F4F"/>
<path d="M118.662 66.054V67.9034C117.001 67.9034 115.838 68.2514 115.172 68.9474C114.516 69.6435 114.188 70.8068 114.188 72.4375V77.2102C114.188 78.5824 114.053 79.7706 113.785 80.7749C113.526 81.7791 113.099 82.6094 112.502 83.2656C111.906 83.9219 111.11 84.4091 110.116 84.7273C109.121 85.0455 107.893 85.2045 106.432 85.2045V82.2812C107.585 82.2812 108.49 82.0973 109.146 81.7294C109.813 81.3714 110.28 80.8196 110.548 80.0739C110.827 79.3281 110.966 78.3736 110.966 77.2102V71.2443C110.966 70.4687 111.065 69.7628 111.264 69.1264C111.473 68.4901 111.851 67.9432 112.398 67.4858C112.945 67.0284 113.72 66.6754 114.724 66.4268C115.739 66.1783 117.051 66.054 118.662 66.054ZM106.432 47.0227C107.893 47.0227 109.121 47.1818 110.116 47.5C111.11 47.8182 111.906 48.3054 112.502 48.9616C113.099 49.6179 113.526 50.4482 113.785 51.4524C114.053 52.4567 114.188 53.6449 114.188 55.017V59.7898C114.188 61.4205 114.516 62.5838 115.172 63.2798C115.838 63.9759 117.001 64.3239 118.662 64.3239V66.1733C117.051 66.1733 115.739 66.049 114.724 65.8004C113.72 65.5518 112.945 65.1989 112.398 64.7415C111.851 64.2841 111.473 63.7372 111.264 63.1009C111.065 62.4645 110.966 61.7585 110.966 60.983V55.017C110.966 53.8537 110.827 52.8991 110.548 52.1534C110.28 51.3977 109.813 50.8409 109.146 50.483C108.49 50.125 107.585 49.946 106.432 49.946V47.0227ZM118.662 64.3239V67.9034H115.142V64.3239H118.662Z" fill="#FF1F4F"/>
</g>
<defs>
<clipPath id="clip0_5096_20380">
<rect width="140" height="140" fill="white"/>
</clipPath>
</defs>
</svg>
