<svg width="1522" height="355" viewBox="0 0 1522 355" fill="none" xmlns="http://www.w3.org/2000/svg">
<path d="M624.702 283.459L551.968 180.892L482.592 283.459H430L526.605 144.713L434.849 14.9189H491.917L557.936 107.789L621.345 14.9189H674.682L582.554 143.594L680.65 283.459H624.702Z" fill="#FF1F4F"/>
<path d="M801.182 247.654C811.874 247.654 821.448 245.043 829.902 239.821C838.605 234.6 845.444 227.513 850.417 218.562C855.639 209.611 858.25 199.292 858.25 187.605C858.25 175.919 855.639 165.6 850.417 156.648C845.444 147.448 838.605 140.238 829.902 135.016C821.448 129.794 811.874 127.184 801.182 127.184C790.241 127.184 780.294 129.794 771.343 135.016C762.391 139.989 755.304 147.075 750.082 156.275C745.109 165.227 742.622 175.67 742.622 187.605C742.622 199.292 745.109 209.735 750.082 218.935C755.304 227.886 762.391 234.973 771.343 240.194C780.294 245.167 790.241 247.654 801.182 247.654ZM698.609 354.324V86.1566H741.13V117.486H742.622C748.839 106.297 757.666 97.5945 769.105 91.3782C780.792 84.9134 794.219 81.681 809.388 81.681C828.037 81.681 844.325 85.908 858.25 94.362C872.423 102.816 883.489 114.876 891.446 130.54C899.403 145.957 903.382 164.232 903.382 185.367C903.382 206.005 899.03 224.032 890.327 239.448C881.872 254.865 870.558 266.8 856.385 275.254C842.211 283.708 826.421 287.935 809.015 287.935C794.592 287.935 781.538 284.702 769.851 278.237C758.164 271.524 749.212 262.448 742.995 251.01H741.876V354.324H698.609Z" fill="#FF1F4F"/>
<path d="M929.922 283.459V0H973.189V283.459H929.922Z" fill="#FF1F4F"/>
<path d="M999.203 184.621C999.203 164.481 1003.43 146.702 1011.88 131.286C1020.34 115.621 1032.15 103.438 1047.32 94.735C1062.74 86.0323 1080.39 81.681 1100.28 81.681C1120.42 81.681 1138.08 86.1566 1153.25 95.108C1168.42 103.811 1180.23 115.87 1188.68 131.286C1197.39 146.702 1201.74 164.481 1201.74 184.621C1201.74 204.265 1197.39 221.919 1188.68 237.583C1180.23 253 1168.42 265.308 1153.25 274.508C1138.08 283.459 1120.42 287.935 1100.28 287.935C1080.39 287.935 1062.86 283.459 1047.69 274.508C1032.52 265.308 1020.59 253 1011.88 237.583C1003.43 221.919 999.203 204.265 999.203 184.621ZM1100.28 247.654C1111.47 247.654 1121.3 245.167 1129.75 240.194C1138.2 234.973 1144.67 227.886 1149.15 218.935C1153.87 209.735 1156.23 199.043 1156.23 186.859C1156.23 175.173 1153.75 164.854 1148.77 155.902C1143.8 146.951 1137.08 139.989 1128.63 135.016C1120.18 129.794 1110.73 127.184 1100.28 127.184C1089.34 127.184 1079.64 129.794 1071.19 135.016C1062.74 139.989 1056.15 146.951 1051.42 155.902C1046.7 164.854 1044.33 175.173 1044.33 186.859C1044.33 198.794 1046.7 209.362 1051.42 218.562C1056.15 227.762 1062.61 234.973 1070.82 240.194C1079.27 245.167 1089.09 247.654 1100.28 247.654Z" fill="#FF1F4F"/>
<path d="M1411.46 283.459L1361.11 138.373L1315.6 283.459H1265.25L1202.96 86.1566H1253.31L1295.46 237.956L1339.48 86.1566H1386.85L1434.96 238.702L1473.38 86.1566H1521.5L1461.82 283.459H1411.46Z" fill="#FF1F4F"/>
<path d="M188.408 287.324L151.465 200.987L188.408 251.35H290.001V287.324H188.408Z" fill="#FF1F4F"/>
<path d="M188.408 227.967L151.465 174.006L188.408 195.591H290.001V227.967H188.408Z" fill="#FF1F4F"/>
<path d="M188.408 174.006L151.465 154.221H219.809L290.001 174.006H188.408Z" fill="#FF1F4F"/>
<path d="M101.592 287.324L138.535 200.987L101.592 251.35H-0.000976562V287.324H101.592Z" fill="#FF1F4F"/>
<path d="M101.592 227.967L138.535 174.006L101.592 195.591H-0.000976562V227.967H101.592Z" fill="#FF1F4F"/>
<path d="M101.592 174.006L138.535 154.221H70.1907L-0.000976562 174.006H101.592Z" fill="#FF1F4F"/>
<path d="M188.408 10.3239L151.465 96.6615L188.408 46.2979H290.001V10.3239H188.408Z" fill="#FF1F4F"/>
<path d="M188.408 69.681L151.465 123.642L188.408 102.058H290.001V69.681H188.408Z" fill="#FF1F4F"/>
<path d="M188.408 123.642L151.465 143.428H219.809L290.001 123.642H188.408Z" fill="#FF1F4F"/>
<path d="M101.592 10.3239L138.535 96.6615L101.592 46.2979H-0.000976562V10.3239H101.592Z" fill="#FF1F4F"/>
<path d="M101.592 69.681L138.535 123.642L101.592 102.058H-0.000976562V69.681H101.592Z" fill="#FF1F4F"/>
<path d="M101.592 123.642L138.535 143.428H70.1907L-0.000976562 123.642H101.592Z" fill="#FF1F4F"/>
</svg>
