<svg width="40" height="40" viewBox="0 0 40 40" fill="none" xmlns="http://www.w3.org/2000/svg">
<mask id="path-1-inside-1_5096_19923" fill="white">
<path d="M0 20C0 8.95431 8.95431 0 20 0C31.0457 0 40 8.95431 40 20C40 31.0457 31.0457 40 20 40C8.95431 40 0 31.0457 0 20Z"/>
</mask>
<path d="M0 20C0 8.95431 8.95431 0 20 0C31.0457 0 40 8.95431 40 20C40 31.0457 31.0457 40 20 40C8.95431 40 0 31.0457 0 20Z" fill="#FF1F4F" fill-opacity="0.05"/>
<path d="M0 20M40 20M40 20M0 20M20 0M40 20M20 40M0 20M20 40V39C9.50659 39 1 30.4934 1 20H0H-1C-1 31.598 8.40202 41 20 41V40ZM40 20H39C39 30.4934 30.4934 39 20 39V40V41C31.598 41 41 31.598 41 20H40ZM20 0V1C30.4934 1 39 9.50659 39 20H40H41C41 8.40202 31.598 -1 20 -1V0ZM20 0V-1C8.40202 -1 -1 8.40202 -1 20H0H1C1 9.50659 9.50659 1 20 1V0Z" fill="#FF1F4F" fill-opacity="0.1" mask="url(#path-1-inside-1_5096_19923)"/>
<g clip-path="url(#clip0_5096_19923)">
<path d="M22.7801 26.9698C22.6395 27.1104 22.4488 27.1893 22.2499 27.1893C22.051 27.1893 21.8603 27.1104 21.7196 26.9698L20.5301 25.7803C20.3895 25.6396 20.3105 25.4489 20.3105 25.25C20.3105 25.0511 20.3895 24.8604 20.5301 24.7198L24.7196 20.5303C24.8603 20.3897 25.051 20.3107 25.2499 20.3107C25.4488 20.3107 25.6395 20.3897 25.7801 20.5303L26.9696 21.7198C27.1102 21.8604 27.1892 22.0511 27.1892 22.25C27.1892 22.4489 27.1102 22.6396 26.9696 22.7803L22.7801 26.9698Z" stroke="#FF1F4F" stroke-opacity="0.77" stroke-width="1.5" stroke-linecap="round" stroke-linejoin="round"/>
<path d="M24.5 20.75L23.4688 15.5945C23.4407 15.4542 23.3731 15.3249 23.274 15.2218C23.1749 15.1187 23.0483 15.0461 22.9093 15.0125L13.4263 12.521C13.3013 12.4908 13.1707 12.4932 13.047 12.528C12.9233 12.5628 12.8106 12.6288 12.7197 12.7197C12.6288 12.8106 12.5628 12.9233 12.528 13.047C12.4932 13.1707 12.4908 13.3013 12.521 13.4263L15.0125 22.9093C15.0461 23.0483 15.1187 23.1749 15.2218 23.274C15.3249 23.3731 15.4542 23.4407 15.5945 23.4688L20.75 24.5" stroke="#FF1F4F" stroke-opacity="0.77" stroke-width="1.5" stroke-linecap="round" stroke-linejoin="round"/>
<path d="M12.7246 12.725L18.1891 18.1895" stroke="#FF1F4F" stroke-opacity="0.77" stroke-width="1.5" stroke-linecap="round" stroke-linejoin="round"/>
<path d="M19.25 20.75C20.0784 20.75 20.75 20.0784 20.75 19.25C20.75 18.4216 20.0784 17.75 19.25 17.75C18.4216 17.75 17.75 18.4216 17.75 19.25C17.75 20.0784 18.4216 20.75 19.25 20.75Z" stroke="#FF1F4F" stroke-opacity="0.77" stroke-width="1.5" stroke-linecap="round" stroke-linejoin="round"/>
</g>
<defs>
<clipPath id="clip0_5096_19923">
<rect width="18" height="18" fill="white" transform="translate(11 11)"/>
</clipPath>
</defs>
</svg>
