<svg width="40" height="40" viewBox="0 0 40 40" fill="none" xmlns="http://www.w3.org/2000/svg">
<mask id="path-1-inside-1_5096_19899" fill="white">
<path d="M0 20C0 8.95431 8.95431 0 20 0C31.0457 0 40 8.95431 40 20C40 31.0457 31.0457 40 20 40C8.95431 40 0 31.0457 0 20Z"/>
</mask>
<path d="M0 20C0 8.95431 8.95431 0 20 0C31.0457 0 40 8.95431 40 20C40 31.0457 31.0457 40 20 40C8.95431 40 0 31.0457 0 20Z" fill="#FF1F4F" fill-opacity="0.05"/>
<path d="M0 20M40 20M40 20M0 20M20 0M40 20M20 40M0 20M20 40V39C9.50659 39 1 30.4934 1 20H0H-1C-1 31.598 8.40202 41 20 41V40ZM40 20H39C39 30.4934 30.4934 39 20 39V40V41C31.598 41 41 31.598 41 20H40ZM20 0V1C30.4934 1 39 9.50659 39 20H40H41C41 8.40202 31.598 -1 20 -1V0ZM20 0V-1C8.40202 -1 -1 8.40202 -1 20H0H1C1 9.50659 9.50659 1 20 1V0Z" fill="#FF1F4F" fill-opacity="0.1" mask="url(#path-1-inside-1_5096_19899)"/>
<path d="M19.25 25.25C22.5637 25.25 25.25 22.5637 25.25 19.25C25.25 15.9363 22.5637 13.25 19.25 13.25C15.9363 13.25 13.25 15.9363 13.25 19.25C13.25 22.5637 15.9363 25.25 19.25 25.25Z" stroke="#FF1F4F" stroke-opacity="0.77" stroke-width="1.5" stroke-linecap="round" stroke-linejoin="round"/>
<path d="M26.7504 26.75L23.5254 23.525" stroke="#FF1F4F" stroke-opacity="0.77" stroke-width="1.5" stroke-linecap="round" stroke-linejoin="round"/>
</svg>
