<svg width="40" height="40" viewBox="0 0 40 40" fill="none" xmlns="http://www.w3.org/2000/svg">
<mask id="path-1-inside-1_5096_19949" fill="white">
<path d="M0 20C0 8.95431 8.95431 0 20 0C31.0457 0 40 8.95431 40 20C40 31.0457 31.0457 40 20 40C8.95431 40 0 31.0457 0 20Z"/>
</mask>
<path d="M0 20C0 8.95431 8.95431 0 20 0C31.0457 0 40 8.95431 40 20C40 31.0457 31.0457 40 20 40C8.95431 40 0 31.0457 0 20Z" fill="#FF1F4F" fill-opacity="0.05"/>
<path d="M0 20M40 20M40 20M0 20M20 0M40 20M20 40M0 20M20 40V39C9.50659 39 1 30.4934 1 20H0H-1C-1 31.598 8.40202 41 20 41V40ZM40 20H39C39 30.4934 30.4934 39 20 39V40V41C31.598 41 41 31.598 41 20H40ZM20 0V1C30.4934 1 39 9.50659 39 20H40H41C41 8.40202 31.598 -1 20 -1V0ZM20 0V-1C8.40202 -1 -1 8.40202 -1 20H0H1C1 9.50659 9.50659 1 20 1V0Z" fill="#FF1F4F" fill-opacity="0.1" mask="url(#path-1-inside-1_5096_19949)"/>
<g clip-path="url(#clip0_5096_19949)">
<path d="M14.375 23.375C13.25 24.32 12.875 27.125 12.875 27.125C12.875 27.125 15.68 26.75 16.625 25.625C17.1575 24.995 17.15 24.0275 16.5575 23.4425C16.266 23.1643 15.882 23.0035 15.4792 22.991C15.0764 22.9786 14.6832 23.1153 14.375 23.375Z" stroke="#FF1F4F" stroke-opacity="0.77" stroke-width="1.5" stroke-linecap="round" stroke-linejoin="round"/>
<path d="M20 22.2499L17.75 19.9999C18.1491 18.9645 18.6517 17.972 19.25 17.0374C20.1239 15.6402 21.3407 14.4897 22.7848 13.6955C24.2288 12.9013 25.852 12.4897 27.5 12.4999C27.5 14.5399 26.915 18.1249 23 20.7499C22.0527 21.349 21.0476 21.8515 20 22.2499Z" stroke="#FF1F4F" stroke-opacity="0.77" stroke-width="1.5" stroke-linecap="round" stroke-linejoin="round"/>
<path d="M17.75 20H14C14 20 14.4125 17.7275 15.5 17C16.715 16.19 19.25 17 19.25 17" stroke="#FF1F4F" stroke-opacity="0.77" stroke-width="1.5" stroke-linecap="round" stroke-linejoin="round"/>
<path d="M20 22.25V26C20 26 22.2725 25.5875 23 24.5C23.81 23.285 23 20.75 23 20.75" stroke="#FF1F4F" stroke-opacity="0.77" stroke-width="1.5" stroke-linecap="round" stroke-linejoin="round"/>
</g>
<defs>
<clipPath id="clip0_5096_19949">
<rect width="18" height="18" fill="white" transform="translate(11 11)"/>
</clipPath>
</defs>
</svg>
