<svg width="40" height="40" viewBox="0 0 40 40" fill="none" xmlns="http://www.w3.org/2000/svg">
<mask id="path-1-inside-1_5096_19975" fill="white">
<path d="M0 20C0 8.95431 8.95431 0 20 0C31.0457 0 40 8.95431 40 20C40 31.0457 31.0457 40 20 40C8.95431 40 0 31.0457 0 20Z"/>
</mask>
<path d="M0 20C0 8.95431 8.95431 0 20 0C31.0457 0 40 8.95431 40 20C40 31.0457 31.0457 40 20 40C8.95431 40 0 31.0457 0 20Z" fill="#FF1F4F" fill-opacity="0.05"/>
<path d="M0 20M40 20M40 20M0 20M20 0M40 20M20 40M0 20M20 40V39C9.50659 39 1 30.4934 1 20H0H-1C-1 31.598 8.40202 41 20 41V40ZM40 20H39C39 30.4934 30.4934 39 20 39V40V41C31.598 41 41 31.598 41 20H40ZM20 0V1C30.4934 1 39 9.50659 39 20H40H41C41 8.40202 31.598 -1 20 -1V0ZM20 0V-1C8.40202 -1 -1 8.40202 -1 20H0H1C1 9.50659 9.50659 1 20 1V0Z" fill="#FF1F4F" fill-opacity="0.1" mask="url(#path-1-inside-1_5096_19975)"/>
<g clip-path="url(#clip0_5096_19975)">
<path d="M14.0006 21.5C13.8587 21.5005 13.7195 21.4607 13.5993 21.3852C13.4791 21.3098 13.3828 21.2018 13.3215 21.0737C13.2603 20.9457 13.2366 20.8029 13.2532 20.662C13.2699 20.521 13.3262 20.3877 13.4156 20.2775L20.8406 12.6275C20.8963 12.5632 20.9722 12.5198 21.0558 12.5043C21.1395 12.4888 21.2259 12.5023 21.3009 12.5424C21.3759 12.5825 21.435 12.6469 21.4686 12.7251C21.5022 12.8032 21.5082 12.8905 21.4856 12.9725L20.0456 17.4875C20.0031 17.6011 19.9889 17.7234 20.004 17.8438C20.0192 17.9641 20.0633 18.079 20.1327 18.1786C20.202 18.2781 20.2944 18.3594 20.4021 18.4154C20.5097 18.4714 20.6293 18.5004 20.7506 18.5H26.0006C26.1425 18.4995 26.2817 18.5393 26.4019 18.6148C26.5221 18.6902 26.6184 18.7982 26.6797 18.9263C26.741 19.0543 26.7646 19.1971 26.748 19.338C26.7313 19.479 26.675 19.6123 26.5856 19.7225L19.1606 27.3725C19.1049 27.4368 19.029 27.4802 18.9454 27.4957C18.8617 27.5112 18.7753 27.4977 18.7003 27.4576C18.6253 27.4175 18.5662 27.3531 18.5326 27.2749C18.499 27.1968 18.493 27.1095 18.5156 27.0275L19.9556 22.5125C19.9981 22.3989 20.0123 22.2766 19.9972 22.1562C19.982 22.0359 19.9379 21.921 19.8685 21.8214C19.7992 21.7219 19.7068 21.6406 19.5991 21.5846C19.4915 21.5286 19.3719 21.4996 19.2506 21.5H14.0006Z" stroke="#FF1F4F" stroke-opacity="0.77" stroke-width="1.5" stroke-linecap="round" stroke-linejoin="round"/>
</g>
<defs>
<clipPath id="clip0_5096_19975">
<rect width="18" height="18" fill="white" transform="translate(11 11)"/>
</clipPath>
</defs>
</svg>
