<svg width="48" height="48" viewBox="0 0 48 48" fill="none" xmlns="http://www.w3.org/2000/svg">
<path d="M32 6C30.9391 6 29.9217 6.42143 29.1716 7.17157C28.4214 7.92172 28 8.93913 28 10V22C28 23.0609 28.4214 24.0783 29.1716 24.8284C29.9217 25.5786 30.9391 26 32 26C32.5304 26 33.0391 26.2107 33.4142 26.5858C33.7893 26.9609 34 27.4696 34 28V30C34 31.0609 33.5786 32.0783 32.8284 32.8284C32.0783 33.5786 31.0609 34 30 34C29.4696 34 28.9609 34.2107 28.5858 34.5858C28.2107 34.9609 28 35.4696 28 36V40C28 40.5304 28.2107 41.0391 28.5858 41.4142C28.9609 41.7893 29.4696 42 30 42C33.1826 42 36.2348 40.7357 38.4853 38.4853C40.7357 36.2348 42 33.1826 42 30V10C42 8.93913 41.5786 7.92172 40.8284 7.17157C40.0783 6.42143 39.0609 6 38 6H32Z" stroke="#FF1F4F" stroke-opacity="0.29" stroke-width="4" stroke-linecap="round" stroke-linejoin="round"/>
<path d="M10 6C8.93913 6 7.92172 6.42143 7.17157 7.17157C6.42143 7.92172 6 8.93913 6 10V22C6 23.0609 6.42143 24.0783 7.17157 24.8284C7.92172 25.5786 8.93913 26 10 26C10.5304 26 11.0391 26.2107 11.4142 26.5858C11.7893 26.9609 12 27.4696 12 28V30C12 31.0609 11.5786 32.0783 10.8284 32.8284C10.0783 33.5786 9.06087 34 8 34C7.46957 34 6.96086 34.2107 6.58579 34.5858C6.21071 34.9609 6 35.4696 6 36V40C6 40.5304 6.21071 41.0391 6.58579 41.4142C6.96086 41.7893 7.46957 42 8 42C11.1826 42 14.2348 40.7357 16.4853 38.4853C18.7357 36.2348 20 33.1826 20 30V10C20 8.93913 19.5786 7.92172 18.8284 7.17157C18.0783 6.42143 17.0609 6 16 6H10Z" stroke="#FF1F4F" stroke-opacity="0.29" stroke-width="4" stroke-linecap="round" stroke-linejoin="round"/>
</svg>
