<svg width="232" height="42" viewBox="0 0 232 42" fill="none" xmlns="http://www.w3.org/2000/svg">
<path d="M11.6903 41.3913H0L15.5672 21.2435V20.5739L0 0.608695H11.6903L22.9035 15.1565H23.5596L34.3553 0.608695H46.0456L30.538 20.7565V21.4261L46.0456 41.3913H34.3553L23.2017 26.6609H22.5456L11.6903 41.3913Z" fill="#FF1F4F"/>
<path d="M57.063 41.3913H48.1164V0.608695H68.992C78.2369 0.608695 84.2013 5.96522 84.2013 15.3391C84.2013 24.713 78.2369 30.1304 68.992 30.1304H57.063V41.3913ZM68.0376 8.82609H57.063V21.913H68.0376C72.9881 21.913 75.3143 20.4522 75.3143 15.3391C75.3143 10.3478 72.9881 8.82609 68.0376 8.82609Z" fill="#FF1F4F"/>
<path d="M120.119 41.3913H87.3746V0.608695H96.3213V33.1739H120.119V41.3913Z" fill="#FF1F4F"/>
<path d="M144.298 42C131.057 42 122.826 33.7217 122.826 21C122.826 8.27826 131.057 0 144.298 0C157.837 0 166.008 8.27826 166.008 21C166.008 33.7217 157.837 42 144.298 42ZM144.298 33.2348C153.066 33.2348 156.465 30.0696 156.465 21C156.465 11.9304 153.066 8.76522 144.298 8.76522C135.53 8.76522 132.309 11.9304 132.309 21C132.309 30.0696 135.53 33.2348 144.298 33.2348Z" fill="#FF1F4F"/>
<path d="M190.905 41.3913H177.604L168.18 0.608695H178.201L183.032 23.7391L184.404 32.687H185.06L186.909 23.7391L193.589 0.608695H206.89L213.51 23.7391L215.359 32.687H216.015L217.387 23.7391L222.218 0.608695H232L222.517 41.3913H209.216L203.251 21L200.448 9.25217H199.792L196.989 21L190.905 41.3913Z" fill="#FF1F4F"/>
</svg>
