<svg width="95" height="23" viewBox="0 0 95 23" fill="none" xmlns="http://www.w3.org/2000/svg">
<path d="M15.6507 23.0094L12.582 15.8376L15.6507 20.0212H24.0896V23.0094H15.6507Z" fill="white"/>
<path d="M15.6507 18.0787L12.582 13.5964L15.6507 15.3893H24.0896V18.0787H15.6507Z" fill="white"/>
<path d="M15.6507 13.5964L12.582 11.9529H18.2591L24.0896 13.5964H15.6507Z" fill="white"/>
<path d="M8.4389 23.0094L11.5076 15.8376L8.4389 20.0212H0V23.0094H8.4389Z" fill="white"/>
<path d="M8.4389 18.0787L11.5076 13.5964L8.4389 15.3893H0V18.0787H8.4389Z" fill="white"/>
<path d="M8.4389 13.5964L11.5076 11.9529H5.83052L0 13.5964H8.4389Z" fill="white"/>
<path d="M15.6507 0L12.582 7.1717L15.6507 2.98821H24.0896V0H15.6507Z" fill="white"/>
<path d="M15.6507 4.93066L12.582 9.41301L15.6507 7.62003H24.0896V4.93066H15.6507Z" fill="white"/>
<path d="M15.6507 9.41309L12.582 11.0565H18.2591L24.0896 9.41309H15.6507Z" fill="white"/>
<path d="M8.4389 0L11.5076 7.1717L8.4389 2.98821H0V0H8.4389Z" fill="white"/>
<path d="M8.4389 4.93066L11.5076 9.41301L8.4389 7.62003H0V4.93066H8.4389Z" fill="white"/>
<path d="M8.4389 9.41309L11.5076 11.0565H5.83052L0 9.41309H8.4389Z" fill="white"/>
<path d="M46.5325 17.2059L42.6315 11.7048L38.9106 17.2059H36.0898L41.2712 9.76438L36.3499 2.80298H39.4107L42.9516 7.78399L46.3525 2.80298H49.2132L44.272 9.70436L49.5333 17.2059H46.5325Z" fill="white"/>
<path d="M55.9995 15.2854C56.5729 15.2854 57.0864 15.1453 57.5398 14.8653C58.0066 14.5852 58.3734 14.2051 58.6401 13.725C58.9202 13.245 59.0603 12.6915 59.0603 12.0647C59.0603 11.4379 58.9202 10.8845 58.6401 10.4043C58.3734 9.9109 58.0066 9.5242 57.5398 9.24412C57.0864 8.96405 56.5729 8.82406 55.9995 8.82406C55.4127 8.82406 54.8792 8.96405 54.3991 9.24412C53.9189 9.51085 53.5388 9.8909 53.2588 10.3843C52.992 10.8645 52.8586 11.4246 52.8586 12.0647C52.8586 12.6915 52.992 13.2516 53.2588 13.7451C53.5388 14.2251 53.9189 14.6052 54.3991 14.8853C54.8792 15.152 55.4127 15.2854 55.9995 15.2854ZM50.498 21.0065V6.62359H52.7786V8.30392H52.8586C53.1921 7.7038 53.6655 7.23705 54.279 6.90365C54.9059 6.55691 55.626 6.38354 56.4396 6.38354C57.4398 6.38354 58.3134 6.61026 59.0603 7.06368C59.8204 7.5171 60.4139 8.16393 60.8407 9.00406C61.2675 9.83094 61.4809 10.8111 61.4809 11.9447C61.4809 13.0516 61.2475 14.0184 60.7807 14.8453C60.3272 15.6721 59.7204 16.3123 58.9602 16.7657C58.2 17.2191 57.3531 17.4458 56.4196 17.4458C55.646 17.4458 54.9459 17.2724 54.3191 16.9257C53.6922 16.5656 53.2121 16.0788 52.8787 15.4654H52.8186V21.0065H50.498Z" fill="white"/>
<path d="M62.9023 17.2058V2.00269H65.2229V17.2058H62.9023Z" fill="white"/>
<path d="M66.6191 11.9046C66.6191 10.8245 66.8459 9.87089 67.2991 9.04407C67.7528 8.20389 68.3862 7.55046 69.1999 7.08369C70.0269 6.61692 70.9735 6.38354 72.0403 6.38354C73.1205 6.38354 74.0677 6.62359 74.8813 7.10369C75.695 7.57047 76.3284 8.21724 76.7816 9.04407C77.2487 9.87089 77.482 10.8245 77.482 11.9046C77.482 12.9582 77.2487 13.9051 76.7816 14.7452C76.3284 15.5721 75.695 16.2322 74.8813 16.7257C74.0677 17.2057 73.1205 17.4458 72.0403 17.4458C70.9735 17.4458 70.0333 17.2057 69.2197 16.7257C68.4061 16.2322 67.7662 15.5721 67.2991 14.7452C66.8459 13.9051 66.6191 12.9582 66.6191 11.9046ZM72.0403 15.2854C72.6405 15.2854 73.1677 15.152 73.6209 14.8853C74.0741 14.6052 74.4211 14.2251 74.6614 13.7451C74.9146 13.2516 75.0412 12.6782 75.0412 12.0247C75.0412 11.3979 74.9081 10.8445 74.641 10.3643C74.3745 9.88425 74.0141 9.51085 73.5609 9.24412C73.1076 8.96405 72.6008 8.82406 72.0403 8.82406C71.4536 8.82406 70.9333 8.96405 70.4801 9.24412C70.0269 9.51085 69.6734 9.88425 69.4198 10.3643C69.1666 10.8445 69.0395 11.3979 69.0395 12.0247C69.0395 12.6648 69.1666 13.2316 69.4198 13.725C69.6734 14.2185 70.0199 14.6052 70.4603 14.8853C70.9135 15.152 71.4402 15.2854 72.0403 15.2854Z" fill="white"/>
<path d="M88.7296 17.2057L86.0291 9.42412L83.5882 17.2057H80.8878L77.5469 6.62354H80.2474L82.508 14.7652L84.869 6.62354H87.4097L89.99 14.8052L92.0506 6.62354H94.6315L91.4306 17.2057H88.7296Z" fill="white"/>
</svg>
